<svg width="920" height="220" viewBox="0 0 920 220" fill="none" xmlns="http://www.w3.org/2000/svg">
  <use href="#mark"/>
  <defs>
    <g id="mark">
      <path d="M110 22 194 70v96l-84 48-84-48V70l84-48Z" fill="rgba(139,61,255,0.08)" stroke="#8B3DFF" stroke-width="12" stroke-linejoin="round"/>
      <path d="M110 62 154 88v50l-44 27-44-27V88l44-26Z" fill="rgba(168,85,247,0.10)" stroke="#A855F7" stroke-width="8" stroke-linejoin="round"/>
      <path d="M87 102h45a12 12 0 0 1 12 12v11a12 12 0 0 1-12 12h-21l-21 15v-15h-3a12 12 0 0 1-12-12v-11a12 12 0 0 1 12-12Z" fill="#07070B" stroke="#8B3DFF" stroke-width="7" stroke-linejoin="round"/>
      <path d="M95 103V91a15 15 0 0 1 30 0v12" stroke="#19D98E" stroke-width="6" stroke-linecap="round"/>
      <rect x="94" y="105" width="33" height="27" rx="7" fill="#19D98E"/>
      <circle cx="110" cy="118" r="5" fill="#07070B"/>
    </g>
  </defs>
  <text x="250" y="129" fill="#F5F7FF" font-family="Inter, Arial, sans-serif" font-size="78" font-weight="800">Cipher</text>
  <text x="478" y="129" fill="#8B3DFF" font-family="Inter, Arial, sans-serif" font-size="78" font-weight="800">Chat</text>
</svg>
